<?xml version="1.0" standalone="no"?>
<svg xmlns:xlink="http://www.w3.org/1999/xlink" id="wave" style="transform:rotate(0deg); transition: 0.3s" viewBox="0 0 1440 490" version="1.1" xmlns="http://www.w3.org/2000/svg"><defs><linearGradient id="sw-gradient-0" x1="0" x2="0" y1="1" y2="0"><stop stop-color="rgba(252, 253, 254, 1)" offset="0%"/><stop stop-color="rgba(172, 205, 254, 1)" offset="100%"/></linearGradient></defs><path style="transform:translate(0, 0px); opacity:1" fill="url(#sw-gradient-0)" d="M0,49L120,89.8C240,131,480,212,720,261.3C960,310,1200,327,1440,318.5C1680,310,1920,278,2160,220.5C2400,163,2640,82,2880,57.2C3120,33,3360,65,3600,106.2C3840,147,4080,196,4320,253.2C4560,310,4800,376,5040,351.2C5280,327,5520,212,5760,163.3C6000,114,6240,131,6480,147C6720,163,6960,180,7200,204.2C7440,229,7680,261,7920,277.7C8160,294,8400,294,8640,285.8C8880,278,9120,261,9360,236.8C9600,212,9840,180,10080,196C10320,212,10560,278,10800,310.3C11040,343,11280,343,11520,318.5C11760,294,12000,245,12240,253.2C12480,261,12720,327,12960,343C13200,359,13440,327,13680,261.3C13920,196,14160,98,14400,49C14640,0,14880,0,15120,49C15360,98,15600,196,15840,253.2C16080,310,16320,327,16560,294C16800,261,17040,180,17160,138.8L17280,98L17280,490L17160,490C17040,490,16800,490,16560,490C16320,490,16080,490,15840,490C15600,490,15360,490,15120,490C14880,490,14640,490,14400,490C14160,490,13920,490,13680,490C13440,490,13200,490,12960,490C12720,490,12480,490,12240,490C12000,490,11760,490,11520,490C11280,490,11040,490,10800,490C10560,490,10320,490,10080,490C9840,490,9600,490,9360,490C9120,490,8880,490,8640,490C8400,490,8160,490,7920,490C7680,490,7440,490,7200,490C6960,490,6720,490,6480,490C6240,490,6000,490,5760,490C5520,490,5280,490,5040,490C4800,490,4560,490,4320,490C4080,490,3840,490,3600,490C3360,490,3120,490,2880,490C2640,490,2400,490,2160,490C1920,490,1680,490,1440,490C1200,490,960,490,720,490C480,490,240,490,120,490L0,490Z"/><defs></defs><path style="transform:translate(0, 50px); opacity:1" fill="#68e28c" d="M0,0L120,65.3C240,131,480,261,720,261.3C960,261,1200,131,1440,98C1680,65,1920,131,2160,204.2C2400,278,2640,359,2880,351.2C3120,343,3360,245,3600,236.8C3840,229,4080,310,4320,310.3C4560,310,4800,229,5040,228.7C5280,229,5520,310,5760,351.2C6000,392,6240,392,6480,375.7C6720,359,6960,327,7200,326.7C7440,327,7680,359,7920,310.3C8160,261,8400,131,8640,106.2C8880,82,9120,163,9360,196C9600,229,9840,212,10080,212.3C10320,212,10560,229,10800,196C11040,163,11280,82,11520,57.2C11760,33,12000,65,12240,65.3C12480,65,12720,33,12960,49C13200,65,13440,131,13680,138.8C13920,147,14160,98,14400,89.8C14640,82,14880,114,15120,122.5C15360,131,15600,114,15840,163.3C16080,212,16320,327,16560,367.5C16800,408,17040,376,17160,359.3L17280,343L17280,490L17160,490C17040,490,16800,490,16560,490C16320,490,16080,490,15840,490C15600,490,15360,490,15120,490C14880,490,14640,490,14400,490C14160,490,13920,490,13680,490C13440,490,13200,490,12960,490C12720,490,12480,490,12240,490C12000,490,11760,490,11520,490C11280,490,11040,490,10800,490C10560,490,10320,490,10080,490C9840,490,9600,490,9360,490C9120,490,8880,490,8640,490C8400,490,8160,490,7920,490C7680,490,7440,490,7200,490C6960,490,6720,490,6480,490C6240,490,6000,490,5760,490C5520,490,5280,490,5040,490C4800,490,4560,490,4320,490C4080,490,3840,490,3600,490C3360,490,3120,490,2880,490C2640,490,2400,490,2160,490C1920,490,1680,490,1440,490C1200,490,960,490,720,490C480,490,240,490,120,490L0,490Z"/></svg>